<?xml version="1.0" encoding="UTF-8"?>
<svg width="50px" height="50px" viewBox="0 0 50 50" version="1.1" xmlns="http://www.w3.org/2000/svg" xmlns:xlink="http://www.w3.org/1999/xlink">
    <!-- Generator: Sketch 49 (51002) - http://www.bohemiancoding.com/sketch -->
    <title>logo_50x50_new</title>
    <desc>Created with Sketch.</desc>
    <defs></defs>
    <g id="logo_50x50_new" stroke="none" stroke-width="1" fill="none" fill-rule="evenodd">
        <path d="M45.3875,14.2857143 C45.835417,14.2857143 46.2161455,14.4419639 46.5296875,14.7544643 C46.8432295,15.0669646 47,15.4464282 47,15.8928571 L47,31.9642857 C47,32.4107146 46.8432295,32.7901782 46.5296875,33.1026786 C46.2161455,33.4151789 45.835417,33.5714286 45.3875,33.5714286 L42.1625,33.5714286 C41.804167,33.5714286 41.490625,33.4709821 41.221875,33.2700893 C40.953125,33.0691964 40.7515625,32.8125003 40.6171875,32.5 L37.9296875,32.5 C37.0786455,33.7500003 35.8692705,34.5312497 34.3015625,34.84375 C33.4057295,36.0044639 32.2859375,36.7857143 30.9421875,37.1875 C30.3151045,37.8571429 29.5984375,38.3705361 28.7921875,38.7276786 C27.9859375,39.0848211 27.1348955,39.2633929 26.2390625,39.2633929 C25.2984375,39.7544639 24.2570313,40 23.1148437,40 C21.9726562,40 20.841667,39.7321429 19.721875,39.1964286 C18.602083,38.6607143 17.5942705,37.9464282 16.6984375,37.0535714 L11.5921875,32.5 L10.3828125,32.5 C10.2484375,32.8125003 10.046875,33.0691964 9.778125,33.2700893 C9.509375,33.4709821 9.19583299,33.5714286 8.8375,33.5714286 L5.6125,33.5714286 C5.16458299,33.5714286 4.78385451,33.4151789 4.4703125,33.1026786 C4.15677049,32.7901782 4,32.4107146 4,31.9642857 L4,15.8928571 C4,15.4464282 4.15677049,15.0669646 4.4703125,14.7544643 C4.78385451,14.4419639 5.16458299,14.2857143 5.6125,14.2857143 L8.8375,14.2857143 C9.33020799,14.2857143 9.73333299,14.4642861 10.046875,14.8214286 L11.79375,14.8214286 L14.4140625,12.2098214 C15.1307295,11.4955354 15.959375,10.9486611 16.9,10.5691964 C17.840625,10.1897318 18.8036455,10 19.7890625,10 L21.9390625,10 C23.1932295,10 24.4026045,10.3125003 25.5671875,10.9375 C26.5973955,10.3125003 27.694792,10 28.859375,10 L32.0171875,10 C33.0473955,10 34.010417,10.2120539 34.90625,10.6361607 C35.802083,11.0602675 36.5859375,11.6517861 37.2578125,12.4107143 L39.4078125,14.8214286 L40.953125,14.8214286 C41.266667,14.4642861 41.669792,14.2857143 42.1625,14.2857143 L45.3875,14.2857143 Z M7.22499231,31.4285714 C7.53853357,31.4285714 7.7960847,31.328125 7.99764672,31.1272321 C8.19920874,30.9263393 8.29998975,30.6696432 8.29998975,30.3571429 C8.29998975,30.0446425 8.19920874,29.7879464 7.99764672,29.5870536 C7.7960847,29.3861607 7.53853357,29.2857143 7.22499231,29.2857143 C6.91145105,29.2857143 6.65389992,29.3861607 6.4523379,29.5870536 C6.25077588,29.7879464 6.14999487,30.0446425 6.14999487,30.3571429 C6.14999487,30.6696432 6.25077588,30.9263393 6.4523379,31.1272321 C6.65389992,31.328125 6.91145105,31.4285714 7.22499231,31.4285714 Z M34.9733637,31.0267857 C35.4212796,30.625 35.6564353,30.0892857 35.6788307,29.4196429 C35.7012262,28.75 35.5108624,28.1696425 35.1077383,27.6785714 L30.2030625,21.25 L28.4561917,23.2589286 C27.7395264,24.1071432 26.866091,24.6651786 25.8358854,24.9330357 C24.8056799,25.2008929 23.7754733,25.1785718 22.7452678,24.8660714 C21.7150623,24.5535711 20.8416269,23.9732146 20.1249616,23.125 C19.3187135,22.1875 18.9267877,21.1160714 18.9491831,19.9107143 C18.9715785,18.7053571 19.3635054,17.6562497 20.1249616,16.7633929 L23.0812045,13.3482143 C22.6780805,13.2589289 22.2973519,13.2142857 21.9390197,13.2142857 L19.7890249,13.2142857 C18.5796527,13.2142857 17.5494472,13.6383925 16.6984072,14.4866071 L13.7421643,17.4330357 C13.3390402,17.8348214 12.8463334,18.0357143 12.2640428,18.0357143 L10.4499846,18.0357143 L10.4499846,29.2857143 L12.0624808,29.2857143 C12.5999795,29.2857143 13.0702909,29.4642861 13.4734149,29.8214286 L18.9155894,34.7098214 C19.4978801,35.3348211 20.1249616,35.8258932 20.796835,36.1830357 C21.603083,36.5848214 22.3869357,36.7857143 23.1483918,36.7857143 C24.1338065,36.7857143 24.9176581,36.4955361 25.4999487,35.9151786 C26.2614049,36.1830357 26.9780702,36.1272325 27.6499436,35.7477679 C28.321817,35.3683032 28.7473365,34.84375 28.9265031,34.1741071 C29.5983765,34.2187503 30.1918643,34.0959818 30.7069676,33.8058036 C31.2220709,33.5156253 31.6139967,33.1473218 31.882746,32.7008929 C32.1514954,32.2544639 32.2858701,31.8750003 32.2858701,31.5625 C32.4202447,31.7410718 32.7561814,31.8080361 33.2936802,31.7633929 C33.9207617,31.7187497 34.4806568,31.4732146 34.9733637,31.0267857 Z M40.5499129,29.2857143 L40.5499129,18.0357143 L37.9296066,18.0357143 L34.838989,14.4866071 C34.0775328,13.6383925 33.13691,13.2142857 32.0171207,13.2142857 L28.8593157,13.2142857 C27.918693,13.2142857 27.1348403,13.5714282 26.5077588,14.2857143 L22.6108931,18.8392857 C22.3421438,19.1517861 22.1965709,19.5200896 22.1741754,19.9441964 C22.15178,20.3683032 22.2973519,20.7366068 22.6108931,21.0491071 C23.0588091,21.6294646 23.6299015,21.9196429 24.3241703,21.9196429 C25.0184391,21.9196429 25.5895315,21.6517857 26.0374475,21.1160714 L29.6655638,16.9642857 C29.9343132,16.6517854 30.2926453,16.4732146 30.7405612,16.4285714 C31.1884772,16.3839282 31.5692048,16.4955357 31.882746,16.7633929 C32.1962873,17.03125 32.3866511,17.3437503 32.4538384,17.7008929 C32.5210258,18.0580354 32.4874321,18.3928568 32.3530574,18.7053571 L37.5936699,25.6696429 C38.4895008,26.6964282 38.9374167,27.9017854 38.9374167,29.2857143 L40.5499129,29.2857143 Z M43.7749052,31.4285714 C44.0884464,31.4285714 44.3459976,31.328125 44.5475596,31.1272321 C44.7491216,30.9263393 44.8499026,30.6696432 44.8499026,30.3571429 C44.8499026,30.0446425 44.7491216,29.7879464 44.5475596,29.5870536 C44.3459976,29.3861607 44.0884464,29.2857143 43.7749052,29.2857143 C43.4613639,29.2857143 43.2038128,29.3861607 43.0022508,29.5870536 C42.8006887,29.7879464 42.6999077,30.0446425 42.6999077,30.3571429 C42.6999077,30.6696432 42.8006887,30.9263393 43.0022508,31.1272321 C43.2038128,31.328125 43.4613639,31.4285714 43.7749052,31.4285714 Z" id="" fill="#FFFFFF"></path>
    </g>
</svg>